<?xml version="1.0" encoding="UTF-8" standalone="no"?>
<svg width="200" height="200"
     version="1.1"
     baseProfile="full"
     xmlns="http://www.w3.org/2000/svg"
     xmlns:xlink="http://www.w3.org/1999/xlink"
     xmlns:ev="http://www.w3.org/2001/xml-events">
     
    <defs>
        
            
                
                <mask id="slice-mask-0">
    <path d="M 100 100 L 100 36 A 64 64 0 0 1 141.1384070199385 50.9731556403854 Z" fill="white" />
</mask><mask id="slice-mask-1">
    <path d="M 100 100 L 141.1384070199385 50.9731556403854 A 64 64 0 0 1 163.02769619278132 88.88651662931645 Z" fill="white" />
</mask><mask id="slice-mask-2">
    <path d="M 100 100 L 163.02769619278132 88.88651662931645 A 64 64 0 0 1 121.88928917284281 160.14032773029814 Z" fill="white" />
</mask><mask id="slice-mask-3">
    <path d="M 100 100 L 121.88928917284281 160.14032773029814 A 64 64 0 1 1 99.99999999999999 36 Z" fill="white" />
</mask>
            
            
        
        
    </defs>
    
    <g id="chart">
        
            <circle fill="white" cx="100" cy="100" r="65"/>
            <g id="slices">
                <path d="M 100 100 L 100 36 A 64 64 0 0 1 141.1384070199385 50.9731556403854 Z" fill="#ef5350" stroke="white" stroke-width="2" mask="url(#slice-mask-0)" /><path d="M 100 100 L 141.1384070199385 50.9731556403854 A 64 64 0 0 1 163.02769619278132 88.88651662931645 Z" fill="#ec407a" stroke="white" stroke-width="2" mask="url(#slice-mask-1)" /><path d="M 100 100 L 163.02769619278132 88.88651662931645 A 64 64 0 0 1 121.88928917284281 160.14032773029814 Z" fill="#ab47bc" stroke="white" stroke-width="2" mask="url(#slice-mask-2)" /><path d="M 100 100 L 121.88928917284281 160.14032773029814 A 64 64 0 1 1 99.99999999999999 36 Z" fill="#7e57c2" stroke="white" stroke-width="2" mask="url(#slice-mask-3)" />
                
                <line x1="121.54726902951712" y1="40.799364890487766" x2="123.59938988947114" y2="35.16120916577232" stroke="#ef5350" stroke-width="1" />
<text x="124.96747046277382" y="31.402438682628684" text-anchor="start" alignment-baseline="central" font-family="Roboto Medium" font-size="12">One</text><line x1="154.55960043841964" y1="68.5" x2="159.75575286112627" y2="65.5" stroke="#ec407a" stroke-width="1" />
<text x="163.219854476264" y="63.49999999999999" text-anchor="start" alignment-baseline="central" font-family="Roboto Medium" font-size="12">Pink</text><line x1="154.55960043841964" y1="131.5" x2="159.75575286112627" y2="134.5" stroke="#ab47bc" stroke-width="1" />
<text x="163.21985447626403" y="136.5" text-anchor="start" alignment-baseline="central" font-family="Roboto Medium" font-size="12">Two</text><line x1="37.957111560230885" y1="110.9398351930166" x2="32.04826504215764" y2="111.9817242590182" stroke="#7e57c2" stroke-width="1" />
<text x="28.109034030108802" y="112.67631696968591" text-anchor="end" alignment-baseline="central" font-family="Roboto Medium" font-size="12">Five</text>
            </g>
        
        
    </g>
</svg>